<?xml version="1.0" encoding="UTF-8"?>
<svg id="Calque_2" data-name="Calque 2" xmlns="http://www.w3.org/2000/svg" viewBox="0 0 215.9 53">
  <defs>
    <style>
      .cls-1 {
        fill: #145f79;
        stroke-width: 0px;
      }
    </style>
  </defs>
  <g id="Calque_1-2" data-name="Calque 1">
    <g>
      <g>
        <path class="cls-1" d="M137.62,38.13h-5.82c0-.14-.02-.29,0-.29,1.94-.53,2.27-2,2.27-3.73-.02-5.01,0-10.03,0-15.04,0-2.46-.01-2.47-2.18-3.47,1.7,0,3.4.01,5.11,0,2.46-.02,2.47-.03,3.42,2.25,1.64,3.94,3.26,7.88,4.89,11.81.18.43.39.84.72,1.56.27-.62.45-.98.59-1.36,1.64-4.31,3.32-8.6,4.9-12.93.38-1.05.91-1.38,1.98-1.33,1.86.08,3.73.02,5.61.02-.02.13-.02.27-.05.28-2.04.58-2.15.58-2.17,2.72-.06,5.58,0,11.16,0,16.74,0,1.36.39,2.31,1.94,2.36.14,0,.27.15.7.4h-10.25c.1-.17.13-.28.18-.3q2.39-.84,2.39-3.46c0-4.84,0-9.68,0-14.52,0-.46,0-.92,0-1.38-.11-.02-.22-.05-.33-.07-2.54,6.62-5.08,13.24-7.62,19.87-.11.02-.23.03-.34.05l-8.57-20.37c-.09.02-.17.04-.26.06-.03.33-.09.65-.09.98,0,5.1-.01,10.2.04,15.3.03,2.43.32,2.7,2.71,3.39.12.03.22.12.34.18-.05.09-.09.19-.14.28Z"/>
        <path class="cls-1" d="M106.77,27c.01-6.23,3.32-10.73,9.02-11.71,8.18-1.4,14.08,3.57,13.57,12.24-.22,3.67-1.47,6.85-4.54,8.99-3.96,2.77-8.26,2.78-12.52.81-3.64-1.68-5.53-5.46-5.52-10.34ZM124.45,27.49c-.36-2.45-.54-4.36-.95-6.22-.41-1.84-1.26-3.53-2.77-4.78-1.76-1.46-4.1-1.47-5.68.18-.85.89-1.59,2.01-1.99,3.16-1.54,4.49-1.63,9.08-.07,13.58.48,1.38,1.41,2.73,2.46,3.76,1.66,1.64,4.11,1.46,5.74-.22.65-.67,1.33-1.49,1.58-2.36.71-2.48,1.21-5.03,1.69-7.1Z"/>
        <path class="cls-1" d="M161.45,15.57c1.67,0,3.34-.04,5.01.04.33.02.68.49.94.81,3.58,4.39,7.15,8.79,10.72,13.19.29.36.59.7,1.2.97,0-.63,0-1.26,0-1.88,0-2.88,0-5.75,0-8.63-.01-2.97-.29-3.35-2.98-4.36h5.94c-.15.14-.24.29-.35.31-1.46.32-1.95,1.34-1.96,2.69-.04,5.58-.07,11.16-.1,16.74,0,.9,0,1.8,0,2.62-1.06.4-1.62.1-2.18-.62-4.07-5.22-8.19-10.41-12.29-15.61-.29-.37-.6-.71-1.02-1.21-.11.45-.21.69-.21.93.02,4.31,0,8.63.1,12.94.05,2.23.39,2.53,2.53,3.14.13.04.24.17.61.43h-6.04c0-.09-.02-.24,0-.24,1.95-.54,2.25-2.05,2.25-3.75,0-5.14.01-10.29,0-15.43,0-2.01-.25-2.29-2.16-3.08Z"/>
        <path class="cls-1" d="M194.27,38.09c2.03-1.41,2.57-3.61,3.37-5.64,2.1-5.34,4.19-10.68,6.25-16.04.3-.77.68-1.04,1.51-1.04.82,0,1.12.33,1.39,1.02,2.34,6.09,4.67,12.18,7.1,18.23.49,1.23,1.34,2.31,2.02,3.45h-9.15c.05-.13.06-.26.11-.27,2.32-.69,2.37-.78,1.52-3.17-.5-1.39-1.06-2.76-1.5-4.17-.23-.73-.62-.94-1.33-.93-1.74.03-3.48.03-5.23,0-.71-.01-1.13.2-1.34.93-.36,1.25-.9,2.45-1.21,3.71-.56,2.27-.1,2.94,2.17,3.51.15.04.27.16.69.43h-6.37ZM206.34,29.01c-1.09-2.96-2.12-5.77-3.15-8.58-.11,0-.23,0-.34,0-1.08,2.82-2.16,5.63-3.29,8.57h6.78Z"/>
        <path class="cls-1" d="M193.75,38.1h-9.62c.03-.12.03-.25.08-.26,2.2-.78,2.23-.77,2.23-3.21.01-5.31.02-10.62,0-15.93-.01-2.21-.16-2.35-2.18-2.99h9.56c-2.31.93-2.32.93-2.33,3.56,0,4.87-.01,9.75,0,14.62,0,1.77-.53,3.87,2.28,4.21Z"/>
      </g>
      <g>
        <path class="cls-1" d="M49.6,3.52c.16-.67.33-1.34.49-2.01.36-1.44.45-1.56,1.91-1.51,1.38.04,2.78.07,4.12.35,2.73.56,5.42,1.29,8.14,1.94.73.18.93.74,1.04,1.37.42,2.48.96,4.92,2.06,7.2.52,1.08.95,2.21,1.35,3.34.3.84.49,1.72.73,2.58.06.22.14.43.25.74.62-.43,1.17-.8,1.86-1.28-.35-.03-1.91.42-2.09.4,0-.03,0-.06,0-.1.43-.13,2.23-.58,2.66-.65.03.08.07.15.1.23-.27.19-.53.4-.81.58-.75.5-1.4.95-1.73,1.97-.31.96-.98,1.84-1.34,2.84-.1.28-.42.55-.71.67-2.9,1.18-4.94,3.51-7.31,5.4-.77.62-1.52,1.28-2.21,2.09.38-.13.78-.22,1.13-.4,1.93-1.01,3.83-2.06,5.77-3.06.93-.48,1.89-.9,2.85-1.33,2.1-.93,2.66-2.07,2.11-4.28-.04-.15-.07-.29-.12-.5,1.27,1.76.66,4.1-1.19,5.01-2.7,1.33-5.37,2.7-8.05,4.08-1.44.74-2.87,1.47-4.61,1.45.15.1.3.23.46.3,2.66,1.2,5.36,2.08,8.31,1.16.58-.18,1.18-.36,1.72-.66,2.57-1.43,5.26-2.27,8.26-2.29,2.57-.01,4.79-2.63,4.81-5.37-.28.07-.56.09-.8.2-1.49.67-2.98,1.34-4.46,2.03-.76.36-1.47.88-2.26,1.13-.62.2-1.34.17-2,.09-1.34-.16-2.66-.43-4-.71,1.16.07,2.35,0,3.47.25,1.25.27,2.32.04,3.37-.59,2.04-1.24,4.16-2.31,6.46-3,.82-.24.36-.94.32-1.44-.05-.58-.45-.9-1.02-.74-.53.15-1.06.39-1.53.67-.55.32-1.02.77-1.57,1.1-.52.32-1.06.63-1.64.81-1.7.51-2.95-.67-2.37-2.34.41-1.19,1.15-2.27,1.8-3.36.34-.57.8-1.07,1.23-1.57.17-.2.41-.33.61-.49.09.04.17.08.26.11-.3,1.6-.61,3.2-.91,4.8.08.04.15.09.23.13,1.22-1.42,2.44-2.84,3.77-4.39-.19-.17-.57-.44-.85-.79-1.2-1.47-1.36-3.12-.68-4.84.4-1.02.92-2,1.36-3.01.21-.48.36-.99.62-1.76-.65.15-1.1.18-1.48.36-.84.38-1.63.86-2.47,1.24-.24.11-.56.05-.84.07.02-.28-.05-.62.08-.84,1.26-2.16,2.98-3.78,5.47-4.38,1.43-.34,2.58.5,2.61,2,.02.97-.2,1.98-.46,2.92-.41,1.47-.79,2.91-.45,4.45.22.99.74,1.66,1.76,1.91,1.59.39,3.19.74,4.76,1.22,1.11.34,2.23.77,3.22,1.36.56.34,1.09,1.02,1.28,1.65.95,3.12.81,6.09-1.44,8.73-1.49,1.74-3.29,2.1-5.4,1.6-.25-.06-.65,0-.83.17-.93.87-1.8,1.79-2.7,2.7-.08.08-.15.18-.37.43.69,0,1.22-.06,1.73.01,1.8.24,3.6.47,5.38.82.64.13,1.28.52,1.81.92,1.79,1.35,2.78,3.12,2.84,5.42.06,2.22.01,4.43-.94,6.47-.55,1.17-1.26,2.28-2.03,3.33-.59.82-1.49,1.19-2.55,1.18-3.63-.04-6.34-2.68-6.31-6.24,0-.31.21-.63.32-.94.3.15.67.24.88.47.83.9,1.71,1.75,2.91,2.03.63.15,1.42.15,1.99-.12,1.99-.93,3.17-3.55,2.71-5.69-.32-1.44-1.31-2.28-2.59-2.82-1.84-.77-3.79-.8-5.74-.68-1.46.09-2.36,1.13-3.24,2.13-.27.31-.51.64-.76.96-3.29,4.17-7.51,5.91-12.75,4.7-3.13-.72-6.31-1.34-9.24-2.79-.27-.13-.61-.09-.92-.14-.03.09-.06.19-.09.28.26.16.51.36.79.48,1.95.89,3.92,1.76,5.87,2.67.52.25,1.02.6,1.45.99,1.38,1.2,1.44,2.73.22,4.1-.87.97-1.98,1.52-3.22,1.83-2.98.75-5.96.49-8.91-.1-1.67-.34-3.31-.89-4.9-1.52-2.06-.81-4.07-.88-6.14-.15-.89.31-1.81.57-2.73.77-1.55.33-2.97.02-4.08-1.18-.74-.8-1.52-.89-2.56-.62-1.15.3-2.37.35-3.57.44-.26.02-.54-.26-.81-.4.17-.25.28-.59.52-.73.96-.58,1.96-1.11,2.95-1.64,1.05-.56,2.19-.73,3.26-.23,1.96.92,3.72.61,5.52-.46,2.87-1.71,5.82-1.44,8.76-.1,1.54.7,3.06,1.43,4.63,2.05.97.39,1.95.34,2.85-.65-.4-.22-.72-.46-1.08-.58-1.06-.37-2.13-.72-3.22-1.03-3.29-.92-5.91-2.87-8.18-5.35-1.41-1.54-1.44-1.58-3-.21-1.29,1.13-2.51,2.33-3.7,3.57-1.34,1.39-2.89,2.03-4.83,1.82-.88-.1-1.79-.02-2.68-.02-1.9,0-3.35.8-4.36,2.4-.45.72-.87,1.45-1.34,2.15-1.36,2.02-3.08,3.55-5.63,3.66-.96.04-2.01-.14-2.9-.5-2.07-.85-3.79-2.25-5.19-3.98-1.84-2.29-2-4.91-1.22-7.64.17-.61.43-1.21.59-1.83.05-.18-.04-.53-.18-.62-4.37-2.77-5.22-6.85-4.37-11.59.35-1.96.65-3.93.93-5.9.05-.34-.04-.71-.11-1.06-.38-1.84-1.65-2.6-3.47-2.09-.3.09-.61.17-1.07.31.13-.32.15-.51.25-.61,1.33-1.25,2.75-2.29,4.73-2.18,1.16.06,2.07.49,2.77,1.4,1.52,1.95,1.77,4.15,1.23,6.48-.19.79-.45,1.58-.75,2.34-1.2,3.06-.46,5.72,1.63,8.1.19.21.38.42.57.62q1.16,1.21,2.57.39c-.48.39-.9.88-1.44,1.17-3.2,1.69-4.54,7.27-3.52,9.97.46,1.23,1.13,2.31,2.12,3.15.93.79,1.92,1.54,2.95,2.2,3.12,1.98,5.93,1.27,8.32-1.45.67-.77,1.22-1.65,1.75-2.52,1.23-2.05,3.03-3.05,5.41-3.05,1,0,2-.04,2.99,0,1.32.07,2.4-.4,3.34-1.28,1.91-1.77,3.82-3.55,5.72-5.34.35-.33.67-.71.94-1.11.86-1.26,1.95-2.15,3.47-2.48.14-.03.26-.12.47-.21-.51-.55-1.01-1.02-1.44-1.54-1.14-1.38-2.29-2.76-3.35-4.2-.95-1.29-1.42-2.78-1.32-4.4.15-2.53-.25-4.96-1.45-7.21-.43-.8-.97-1.53-1.55-2.43,1.8,1.56,2.9,3.4,3.34,5.56.27,1.34.33,2.74.32,4.12,0,1.43.37,2.7,1.2,3.81,4.48,5.96,9.79,10.93,16.97,13.42,2.93,1.01,6.01,1.69,9.08,2.2,3.64.6,6.65-.94,9.16-3.5.84-.86,1.55-1.84,2.35-2.74,1.32-1.48,2.96-2.03,4.91-1.65,1.25.24,2.53.38,3.76.7,3.04.8,4.47,3.67,3.36,6.61-.44,1.17-1.06,2.21-2.06,3-1.17.92-2.45,1.11-3.72.37-1-.58-1.89-1.35-2.89-2.08.1,1.27.42,2.47,1.22,3.49,1.2,1.53,2.89,1.98,4.73,1.86,1.04-.07,1.74-.83,2.29-1.66,2.11-3.22,2.61-6.8,1.81-10.46-.4-1.84-1.61-3.38-3.75-3.69-1.85-.27-3.69-.55-5.55-.72-1.78-.16-3.47.26-4.97,1.26-1.45.96-2.85,2-4.31,2.94-.75.48-1.57.86-2.39,1.21-1.26.53-2.56.66-3.9.28-.66-.19-1.35-.3-2.04-.38-2.89-.37-5.48-1.65-8.1-2.79-2.61-1.14-4.26-3.29-5.37-5.86-.33-.75-.57-1.54-.9-2.29-.21-.48-.58-.9-.77-1.39-.34-.93-.69-1.87-.88-2.83-.41-2.06-.2-4.08.66-6.01.21-.48.52-.92.87-1.34-.96,1.75-1.39,3.61-1.25,5.59.26,3.6,1.92,6.41,4.81,8.51.84.61,1.78.61,2.64-.05.77-.59,1.55-1.18,2.28-1.82,2.57-2.23,5.14-4.47,7.68-6.74.67-.59,1.27-1.27,1.82-1.97.2-.26.27-.75.19-1.08-.25-1.09-.54-2.19-.93-3.24-.61-1.65-1.43-3.24-1.95-4.92-.59-1.9-.92-3.87-1.42-5.8-.09-.33-.41-.77-.7-.85-2.86-.77-5.73-1.52-8.63-2.16-1.16-.26-2.39-.25-3.58-.34-.81-.06-1.29.29-1.46,1.11-.09.47-.26.94-.43,1.39-.07.2-.22.38-.34.57h0ZM41.17,38.11c.62.44,1.26.83,1.81,1.31,2.64,2.33,5.68,3.9,9.02,4.96.95.3,1.89.65,2.8,1.03.52.22.88.63.83,1.26-.05.67-.43,1.07-1.04,1.29-.91.31-1.82.3-2.7-.08-1.27-.55-2.54-1.1-3.76-1.74-3.28-1.73-6.56-2.11-9.84-.05-1.6,1.01-3.19.99-4.9.27-.63-.27-1.48-.47-2.07-.27-1.45.5-2.81,1.26-4.2,1.91.03.09.07.18.1.28,1.32.02,2.63-.09,3.88-.55.93-.34,1.69-.18,2.4.47.21.19.45.35.65.54.92.87,2.02,1.07,3.21.79.89-.21,1.78-.47,2.65-.77,2.3-.78,4.56-.81,6.81.16,3.3,1.42,6.79,1.95,10.35,1.85,1.29-.04,2.6-.3,3.83-.7.78-.25,1.52-.84,2.11-1.45.98-1,.89-2.1-.19-2.99-.6-.5-1.31-.9-2.01-1.24-1.41-.67-2.85-1.27-4.28-1.9-2.15-.94-4-2.26-5.48-4.1-.19-.24-.4-.47-.64-.66-1.34-1.07-2.67-2.15-4.03-3.19-.18-.14-.5-.2-.73-.17-2.24.36-3.51,1.91-4.57,3.73ZM52,27.93c-.03.18-.06.23-.04.27,1.36,2.88,3.37,5.05,6.39,6.31,3.11,1.3,6.3,2.28,9.62,2.78.83.13,1.78.13,2.55-.15,1.31-.48,2.56-1.15,3.76-1.88,1.98-1.2,3.74-2.8,6.08-3.35.14-.03.26-.16.37-.26.52-.46,1.01-.95,1.55-1.37,1.7-1.35,2.76-3.11,3.14-5.21.41-2.25.25-4.46-1.43-6.26-2.39-2.57-5.24-2.41-7.29.39-.48.66-.99,1.3-1.53,1.92-.18.2-.49.28-.74.41-.11-.3-.33-.61-.31-.89.07-.73.26-1.46.39-2.19.07-.4.11-.8.17-1.2l-.21-.06c-.95,1.31-2.06,2.53-2.55,4.13-.41,1.33.4,2.21,1.72,1.79.83-.26,1.55-.84,2.32-1.29.7-.41,1.35-.95,2.1-1.24,1.32-.5,2.09.05,2.19,1.45.19,2.6-.64,4.84-2.47,6.69-1.65,1.67-3.33,3.3-5.01,4.94-.44.43-.89.85-1.37,1.23-.98.78-1.68.77-2.72.05-.82-.57-1.65-1.12-2.48-1.66-.58-.37-1.19-.46-1.9-.3-1.9.42-3.76.21-5.55-.58-2.47-1.08-4.84-2.32-6.74-4.46ZM74.73,7.29c.21-.1.43-.2.65-.31.73-.37,1.44-.81,2.2-1.08.46-.17,1.02-.08,1.53-.1,0,.51.11,1.07-.05,1.52-.42,1.15-.96,2.26-1.46,3.38-1.06,2.37-.24,4.8,2,5.63,1.11.42,2.3.64,3.45.96,1.52.43,3.05.8,4.54,1.31,1.61.56,2.26,1.68,1.97,3.35-.24,1.38-.9,2.7-2.73,2.67-.23,0-.6.17-.66.35-.35.97-.62,1.97-.94,3.04,1.44.12,2.82.19,4.06-.71,2.32-1.7,2.83-4.08,2.73-6.78-.09-2.66-2.19-4.62-4.53-4.91-1.46-.19-2.89-.65-4.34-.98-1.33-.3-2.12-1.17-2.31-2.46-.14-.97-.15-1.99-.03-2.96.11-.88.53-1.71.71-2.59.15-.74.26-1.52.2-2.26-.07-.91-.7-1.39-1.6-1.25-2.51.4-4.19,1.96-5.46,4.05,0,0,.02.04.08.13ZM1.18,17.29c.3-.03.54-.06.78-.07,1.39-.07,2.45.62,2.85,1.96.17.56.32,1.17.26,1.73-.17,1.72-.35,3.46-.71,5.15-.45,2.15-.76,4.27-.22,6.45.63,2.57,2.08,4.5,4.25,5.82.89-.95,1.72-1.83,2.59-2.75.02.05.01-.01-.02-.04-.13-.12-.27-.24-.4-.36-2.94-2.77-4.15-6.02-2.72-9.99.26-.72.45-1.47.65-2.21.53-1.92.25-3.74-.72-5.47-1.53-2.7-4.93-2.15-6.6-.22ZM65.64,32.68c1.14.62,2.24,1.2,3.33,1.81.57.31,1.11.51,1.71.09,1.73-1.21,3.01-2.84,4.38-4.43-3.63-.68-6.48,1.16-9.43,2.54ZM86.27,24.26c1.61.02,2.65-.98,2.76-2.62.05-.72.1-1.59-.59-1.95-1.23-.64-2.57-1.08-3.87-1.6-.06.08-.12.15-.18.23,1.72,1.65,1.83,3.79,1.88,5.94ZM52.93,39.26c.81,1.22,1.79,1.74,2.27,1.24-.77-.42-1.52-.83-2.27-1.24ZM66.17,22.52c.05.06.1.12.15.17.76-.45,1.61-.81,1.77-1.91-.64.58-1.28,1.16-1.91,1.73Z"/>
        <path class="cls-1" d="M49.6,3.52c-.05.45.12.7.6.81.43.1.84.32,1.26.48,0,.09-.01.18-.02.27-.32,0-.65.06-.96-.01-.87-.2-1.73-.45-2.6-.67-2.23-.56-4.42-.35-6.58.33-1.63.52-3.27,1.01-4.96,1.53.2-1.45.39-2.84.59-4.34-.42.02-.64,0-.85.05-4.29,1.14-8.65,1.85-13.05,2.37-.56.07-.87.33-1.06.84-1.41,3.82-2.79,7.65-4.26,11.44-1.04,2.67-.8,5.03,1.26,7.13.91.93,1.75,1.93,2.66,2.86.39.4.82.53,1.41.18,1.55-.91,3.25-.75,4.94-.47.18.03.36.05.53.1,3.12.93,5.54-.29,7.65-2.49.37-.39.77-.75,1.17-1.11.06-.06.17-.06.41.04-.33.49-.58,1.07-1.01,1.46-.88.82-1.78,1.62-2.78,2.27-1.82,1.18-3.81.89-5.8.44-.79-.18-1.62-.28-2.43-.32-1.32-.07-2.43.48-3.47,1.25-.78.58-1.57,1.16-2.4,1.66-1.81,1.08-3.14.91-4.22-.49-1.27-1.63-1.27-3.72.05-5.05.52-.52,1.13-.94,1.76-1.45-.2-.43-.38-.94-.67-1.37-.1-.16-.49-.25-.7-.19-1.89.52-3.15,1.84-3.62,3.65-.97,3.7-.18,7.07,2.52,9.86,1.42,1.47,2.94,1.68,4.73.7,1.09-.6,2.1-1.36,3.13-2.06.66-.44,1.28-.95,1.96-1.34,1.22-.69,2.5-.79,3.84-.27,1.6.62,3.2,1.23,4.98,1.08,2.23-.19,4.32-.81,6.22-2.01.21-.13.44-.25.75-.23-.88.52-1.78,1.01-2.63,1.57-.47.31-.94.69-1.27,1.14-.71.97-1.24,2.08-2,3-.79.95-1.71,1.83-2.7,2.55-1,.73-2.21.84-3.46.61-1-.19-2.03-.34-3.04-.31-3.12.11-5.19,1.9-6.5,4.56-.89,1.82-2.26,2.44-4.15,2.32-2.26-.15-3.57-1.67-3.35-3.95.15-1.49.75-2.74,1.97-3.68.84-.65,1.62-1.38,2.52-2.16-2.66-1.82-3.83-4.4-4.19-7.33-.36-2.98.14-5.75,2.94-7.73-.33-.12-.53-.2-.73-.26-2.93-.91-5-4.03-4.67-7.07.14-1.24.77-2.27,1.55-3.2.74-.88,1.51-1.74,2.24-2.63.67-.83.64-1.43-.32-1.94-.81-.43-1.77-.6-2.68-.78-.54-.11-1.12-.02-1.92-.02.35-.31.56-.63.83-.7,1.07-.3,2.16-.7,3.25-.72,1.42-.03,2.86.16,4.26.43,1.62.31,2.05,1.14,1.63,2.74-.36,1.41-1.2,2.53-2.19,3.55-.51.53-1.03,1.08-1.42,1.7-.58.91-.43,1.72.45,2.35.57.41,1.26.66,1.9.96.47.22.71.05.9-.45,1.24-3.3,2.55-6.59,3.78-9.9.28-.75.7-1.11,1.49-1.19,4.39-.43,8.71-1.27,13-2.26.98-.23,1.03-.17.98.81-.06,1.09-.13,2.19-.2,3.41.34-.12.62-.2.89-.3,1.37-.49,2.74-.98,4.12-1.46,2.3-.8,4.63-.7,6.97-.16.39.09.8.23.76-.43,0,0,0,0,0,0ZM15.85,26.87c.4-.88,1.63-2.15,1.02-3.69.46.61.41,1.5.57,1.81.38-.3.71-.56,1.04-.81-.61-1.31-.7-1.34-1.78-.59-.08.06-.17.1-.26.17-1.18.89-1.66,2.4-1.07,3.52.17-.16.57-.57.74-.71-.64,1-.45,2.36.67,2.77.94-1.29,1.87-2.55,2.84-3.87,0,0-.08-.12-.18-.24-.67-.86-.77-.87-1.6-.13-.66.59-1.32,1.19-1.98,1.78ZM36.81,32.86c-.06-.09-.13-.18-.19-.27-1.02.47-2.16.36-3.17,1.13-1.43,1.09-3.12,1.29-4.77.39-.87-.47-1.65-1.11-2.49-1.62-.23-.14-.67-.24-.85-.12-1.73,1.17-3.42,2.39-5.28,3.7.63.52,1.13,1.08,1.75,1.43.63.36,1.38.51,2.2.79-.87.25-1.59.22-2.18-.25-.57-.45-1.1-.98-1.56-1.54-.26-.32-.42-.5-.86-.3-.87.4-1.77.41-2.7.17-.18-.05-.5.1-.64.26-.23.26-.36.61-.56.97,1.55.55,3.5.02,5.19-.75-.77,1.08-3.45,1.51-4.93,1.15-.55-.13-.92-.06-1.31.31-.33.31-.73.56-1.06.88-.31.31-.57.67-.89,1.06,1.75.71,3.38,1.19,5.12,1.19,1.16,0,2.21-.2,3.12-1.14.65-.66,1.6-1.1,2.49-1.43,1.68-.62,3.43-.47,5.15-.08,1.75.4,3.34,0,4.53-1.24,1.4-1.46,2.6-3.13,3.88-4.71ZM9.39,4.81c1.04.14,1.99.14,2.85.41,1.95.61,2.26,1.86.95,3.41-.87,1.04-1.77,2.06-2.59,3.14-.36.48-.66,1.08-.75,1.65-.47,3.1,1.71,6.33,4.79,6.7.38.05.76.12,1.11.27.58.25.76.06.85-.53.17-1.08.41-2.15.63-3.23.05-.26.13-.52.19-.75-.84-.27-1.63-.43-2.33-.77-1.33-.65-1.75-1.96-.98-3.21.51-.84,1.22-1.57,1.9-2.29.88-.94,1.54-1.97,1.76-3.26.17-1.02-.04-1.46-1.06-1.69-1.17-.27-2.36-.45-3.55-.54-1.27-.1-2.54-.04-3.79.68ZM12.52,40.47c-.86,1.4-.55,3.53.58,4.3,1.44.99,4.01.63,4.94-.75.54-.8.97-1.66,1.53-2.63-2.55.65-4.83.17-7.06-.92ZM19.93,25.73c-.83.99-1.57,1.79-2.2,2.67-.15.22.02.71.13,1.05.03.1.41.19.58.13,1.23-.4,2.24-1.16,3.03-1.85-.48-.63-.94-1.21-1.54-2ZM28.47,33.48c.97.89,3.8.7,4.28-.17-.75-.14-1.53-.19-2.24-.44-.88-.3-1.45.08-2.04.6ZM26.14,32.08c1.18,1.38,1.84,1.48,3.11.45-1.02-.39-1.95-.84-3.11-.45Z"/>
        <path class="cls-1" d="M51.17,23.55c.42-.86.79-1.74,1.26-2.57.5-.89,1.09-1.73,1.62-2.61.36-.59.35-1.2.07-1.83-1.14-2.6-.74-5.06.75-7.37.58-.89,1.28-1.7,2.01-2.48-.69,1.11-1.44,2.19-2.06,3.34-1.1,2.05-1.16,4.16-.06,6.25.36.68.43,1.43.06,2.07-1.06,1.82-2.19,3.6-3.3,5.4-.12-.06-.23-.13-.35-.19Z"/>
        <path class="cls-1" d="M28.45,9.3c2.51,1.1,4.47,2.8,5.77,5.18.24.45.34,1.03.34,1.55-.02,1.98-.05,3.94,1.1,5.69.09.13.08.32-.02.59-.22-.21-.49-.39-.66-.64-.67-.99-1.07-2.09-1.05-3.31,0-.1-.01-.21,0-.31.38-3.39-1.46-5.65-3.87-7.61-.51-.42-1.08-.77-1.62-1.15Z"/>
      </g>
    </g>
  </g>
</svg>