<svg width="763" height="625" viewBox="0 0 863 725" fill="none" xmlns="http://www.w3.org/2000/svg">
<path fill-rule="evenodd" clip-rule="evenodd" d="M196.378 725H0.87793C1.03564 720.907 1.19971 716.814 1.37402 712.722C1.90625 700.232 2.60205 687.75 3.26758 675.264L3.53906 670.182C4.15381 658.638 4.76904 647.091 5.48877 635.552C6.30029 622.568 7.21387 609.588 8.20312 596.616L8.24854 596.01C9.13623 584.322 10.0239 572.633 11.2148 560.974C12.5103 548.273 13.854 535.559 15.7524 522.935C17.5464 510.98 19.6172 499.028 22.4136 487.273C25.5913 473.91 37.0967 465.192 50.8755 464.709C61.8447 464.326 71.478 468.457 80.3765 474.303C90.8008 481.156 98.02 490.711 102.854 502.175C106.044 509.744 111.574 515.225 118.877 518.989C127.3 523.334 136.404 525.201 145.702 525.133C169.015 524.958 187.912 515.625 201.545 496.55C211.47 482.666 215.57 466.776 216.633 449.991C217.925 429.611 214.252 410.396 202.721 393.107C189.056 372.613 170.694 359.487 145.517 357.706C132.778 356.807 121.252 360.546 111.44 368.943C105.632 373.91 99.3013 377.895 91.9165 380.22C73.9912 385.866 58.1924 374.472 52.8027 361.374C49.2842 352.828 49.334 343.97 50.771 335.115L51.4829 330.726C54.4473 312.439 57.4126 294.143 60.854 275.947C66.2622 247.368 71.9849 218.845 77.8994 190.367C80.2241 179.187 82.9658 168.09 85.7065 156.996C86.4526 153.977 87.1987 150.957 87.936 147.936C89.2554 142.542 90.7964 141.834 96.2358 143.268C101.516 144.662 106.791 146.076 112.065 147.49C125.088 150.98 138.111 154.471 151.209 157.661L151.451 157.719C174.04 163.221 196.654 168.727 219.443 173.283C234.812 176.353 250.362 178.533 265.903 180.711C268.969 181.141 272.034 181.57 275.097 182.007C281.248 182.882 287.6 182.987 293.108 179.141C295.931 177.171 298.749 175.164 301.353 172.919C307.146 167.919 309.361 159.229 303.455 152.239C298.414 146.271 293.259 140.395 288.017 134.602C278.975 124.607 273.295 113.154 272.621 99.5655C272.091 88.9257 274.253 78.6979 277.893 68.7411C284.147 51.6224 293.482 36.6422 308.175 25.4095C334.446 5.30822 364.729 -1.29163 397.022 0.773068C409.095 1.5426 421.233 4.38537 432.9 7.78479C448.804 12.4125 463.409 20.1246 476.104 30.9965C490.513 43.3407 499.173 58.8368 501.322 77.7526C503.02 92.7103 501.206 107.38 497.565 121.917C494.42 134.466 488.254 145.061 478.041 153.109C472.283 157.647 466.414 162.046 460.545 166.445C459.209 167.447 457.873 168.448 456.538 169.451C450.106 174.286 444.203 179.579 440.366 186.824C438.047 191.202 436.603 195.723 436.826 200.774C437.327 212.003 448.818 221.505 457.729 223.506C468.147 225.845 478.751 227.463 489.332 228.955C501.8 230.712 514.291 232.31 526.781 233.909C532.843 234.685 538.905 235.461 544.963 236.255C551.733 237.142 558.5 238.044 565.268 238.946C570.527 239.647 575.786 240.347 581.046 241.041C597.836 243.254 614.627 245.466 631.417 247.652C635.78 248.22 640.145 248.771 644.51 249.321C651.85 250.247 659.19 251.173 666.518 252.181C671.998 252.934 677.464 253.783 682.931 254.633C686.539 255.193 690.148 255.754 693.761 256.287C696.3 256.661 697.331 258.077 696.887 260.464C696.312 263.515 695.677 266.566 694.842 269.554C693.23 275.312 691.589 281.061 689.948 286.81C687.51 295.351 685.072 303.891 682.73 312.458C678.658 327.364 674.619 342.285 670.95 357.294C666.863 374.028 662.843 390.789 659.459 407.674C655.128 429.257 651.042 450.909 650.207 473.007C649.972 479.15 650.62 485.067 654.246 490.329C661.849 501.379 678.729 506.53 692.204 501.869C700.352 499.046 706.354 493.544 710.973 486.497C714.572 481 718.781 476.233 724.525 472.885C731.515 468.807 739.132 466.391 746.983 464.843C764.44 461.405 781.678 462.734 798.494 468.438C817.01 474.725 832.325 485.524 843.639 501.615C854.355 516.86 859.567 534.064 861.516 552.375C863.104 567.313 862.116 582.162 860.352 597.047C857.839 618.238 852.074 638.332 841.15 656.745C828.891 677.41 812.054 693.104 789.199 701.321C764.222 710.3 740.354 707.067 718.117 692.619C708.057 686.082 700.738 676.859 694.08 667.041C693.568 666.286 693.06 665.523 692.55 664.758C689.872 660.741 687.164 656.678 683.746 653.393C673.983 644.002 662.531 637.518 648.669 636.201C643.876 635.745 639.235 635.454 634.722 638.079C628.859 641.488 624.821 646.281 622.098 652.335C617.322 662.945 615.148 674.268 613.444 685.64C611.476 698.72 609.86 711.854 608.361 725H356.21C356.652 721.658 356.819 718.218 356.741 714.698C356.348 696.944 346.953 684.049 332.792 674.268C319.309 664.952 303.928 660.501 288.051 657.35C273.962 654.551 259.847 653.445 245.763 656.858C228.533 661.035 215.031 670.537 206 685.936C199.965 696.232 197.493 707.64 196.556 719.35C196.404 721.251 196.339 723.136 196.378 725Z" fill="white"/>
</svg>
