<svg width="31" height="35" viewBox="0 0 31 35" fill="none" xmlns="http://www.w3.org/2000/svg">
<path fill-rule="evenodd" clip-rule="evenodd" d="M17.8737 2.26328C18.1033 1.93838 17.981 1.60974 18.0324 1.3063C18.0623 1.12891 18.1696 0.834817 18.2695 0.893636C18.9791 1.31097 19.9361 0.637819 20.542 1.42394C23.0012 4.61325 26.3147 6.95202 28.9998 9.91632C29.1894 10.1245 29.392 10.3206 29.5824 10.5269C30.6869 11.7182 30.686 11.7182 29.335 12.4894C27.9439 13.283 27.8085 13.2868 26.4874 12.2299C23.7453 10.0321 21.0135 7.81937 18.3993 5.4694C17.5833 4.73649 16.8439 3.92516 16.6627 2.77678C16.6089 2.46693 16.5995 2.15099 16.6347 1.83848C16.6702 1.57052 16.7598 1.22881 17.0894 1.2036C17.4321 1.17559 17.376 1.53038 17.447 1.74698C17.5123 1.94585 17.5637 2.15311 17.8737 2.26328ZM7.22458 14.9197C8.59983 15.0074 9.77061 15.6395 10.919 16.3332C13.4118 17.8382 15.6469 19.7317 18.1902 21.1648C18.6813 21.4421 18.6766 21.697 18.2266 22.1171C16.9167 23.3402 15.6451 22.7865 14.4136 22.0891C11.9413 20.6886 9.50826 19.22 7.05279 17.7925C6.41605 17.4218 5.75503 17.0923 5.09869 16.759C4.71963 16.5648 4.66174 16.2361 4.68975 15.8701C4.71963 15.4911 4.95864 15.394 5.31342 15.3043C5.9455 15.1438 6.55516 14.8954 7.22458 14.9197ZM5.7625 34.8071C4.32283 34.8071 2.88316 34.8137 1.44349 34.8034C0.985074 34.7997 0.500516 34.7968 0.357669 34.2031C0.226959 33.6615 0.71712 33.6186 0.99441 33.3861C1.52845 32.938 2.15212 32.7316 2.81781 32.6299C5.71209 32.1817 8.60636 31.9903 11.5109 32.5617C11.8256 32.6233 12.1579 32.6159 12.2989 32.9679C12.4576 33.3665 12.0683 33.4748 11.903 33.7185C11.1309 34.8575 9.99655 34.8575 8.8155 34.8211C7.79877 34.7903 6.78017 34.8155 5.7625 34.8155V34.8071Z" fill="black"/>
</svg>
