<svg width="32" height="36" viewBox="0 0 32 36" fill="none" xmlns="http://www.w3.org/2000/svg">
<g id="image" clip-path="url(#clip0_370_3671)">
<path id="Vector" fill-rule="evenodd" clip-rule="evenodd" d="M18.4887 2.75449C18.7183 2.42959 18.596 2.10095 18.6474 1.79752C18.6772 1.62012 18.7846 1.32603 18.8845 1.38485C19.5941 1.80218 20.5511 1.12903 21.157 1.91515C23.6162 5.10446 26.9297 7.44323 29.6148 10.4075C29.8043 10.6157 30.007 10.8118 30.1974 11.0181C31.3019 12.2095 31.301 12.2095 29.95 12.9806C28.5589 13.7742 28.4235 13.778 27.1024 12.7211C24.3603 10.5233 21.6285 8.31058 19.0143 5.96061C18.1983 5.2277 17.4588 4.41637 17.2777 3.268C17.2239 2.95814 17.2145 2.6422 17.2497 2.32969C17.2852 2.06173 17.3748 1.72002 17.7044 1.69481C18.047 1.66681 17.991 2.02159 18.062 2.23819C18.1273 2.43706 18.1787 2.64433 18.4887 2.75449ZM7.83957 15.4109C9.21482 15.4987 10.3856 16.1307 11.534 16.8244C14.0268 18.3295 16.2619 20.2229 18.8052 21.656C19.2962 21.9333 19.2916 22.1882 18.8416 22.6083C17.5317 23.8314 16.2601 23.2777 15.0286 22.5803C12.5563 21.1798 10.1233 19.7112 7.66778 18.2837C7.03104 17.913 6.37002 17.5835 5.71368 17.2502C5.33462 17.056 5.27673 16.7273 5.30474 16.3613C5.33462 15.9823 5.57363 15.8852 5.92841 15.7956C6.56049 15.635 7.17015 15.3866 7.83957 15.4109ZM6.37749 35.2983C4.93782 35.2983 3.49815 35.3049 2.05848 35.2946C1.60006 35.2909 1.11551 35.2881 0.972659 34.6943C0.84195 34.1528 1.33211 34.1098 1.6094 33.8773C2.14344 33.4292 2.76711 33.2229 3.4328 33.1211C6.32708 32.6729 9.22135 32.4815 12.1259 33.0529C12.4405 33.1145 12.7729 33.1071 12.9139 33.4591C13.0726 33.8577 12.6833 33.966 12.518 34.2097C11.7459 35.3487 10.6115 35.3487 9.43049 35.3123C8.41376 35.2815 7.39516 35.3067 6.37749 35.3067V35.2983Z" fill="black"/>
</g>
<defs>
<clipPath id="clip0_370_3671">
<rect width="30.8101" height="35.4783" fill="white" transform="translate(0.951172 0.491333)"/>
</clipPath>
</defs>
</svg>
