<svg width="108" height="24" viewBox="0 0 108 24" fill="none" xmlns="http://www.w3.org/2000/svg">
<g id="Group 1">
<g id="Group">
<g id="Group_2">
<g id="Group_3">
<path id="Vector" d="M12.0722 0.381348C14.3047 0.381348 16.2588 0.837453 17.9296 1.74486C19.6052 2.64747 20.9063 3.95817 21.8281 5.67216C22.7547 7.38855 23.2204 9.43382 23.2204 11.808C23.2204 14.1269 22.7451 16.1818 21.7993 17.9726C20.851 19.7586 19.5283 21.1485 17.8335 22.1399C16.1436 23.1266 14.2135 23.6187 12.0434 23.6187C9.81571 23.6187 7.86166 23.1674 6.18608 22.2648C4.51529 21.3574 3.2142 20.0443 2.28758 18.3279C1.35857 16.6139 0.895264 14.5686 0.895264 12.1921C0.895264 9.87553 1.36817 7.82305 2.31639 6.03704C3.26221 4.24623 4.58491 2.85632 6.2821 1.86969C7.97689 0.878262 9.90693 0.381348 12.0722 0.381348ZM11.9474 0.947878C10.7879 0.947878 9.7677 1.41839 8.8843 2.3594C8.00089 3.29562 7.32154 4.60392 6.84863 6.2867C6.37332 7.97189 6.13807 9.89713 6.13807 12.0672C6.13807 14.2565 6.40693 16.1842 6.94465 17.8478C7.48237 19.5065 8.20734 20.7908 9.12435 21.6982C10.039 22.6008 11.0544 23.0521 12.1682 23.0521C13.3253 23.0521 14.3479 22.5864 15.2314 21.6502C16.1148 20.7092 16.7917 19.3985 17.267 17.7133C17.7399 16.0305 17.9776 14.1029 17.9776 11.9328C17.9776 9.7507 17.7087 7.82786 17.171 6.16187C16.6381 4.49829 15.9131 3.214 14.9913 2.31139C14.0743 1.40398 13.0613 0.947878 11.9474 0.947878Z" fill="#145F79"/>
</g>
</g>
</g>
<g id="Group_4">
<g id="Group_5">
<g id="Group_6">
<path id="Vector_2" d="M52.3251 1.45674C51.6146 1.49515 51.0984 1.57917 50.7792 1.7064C50.4647 1.83603 50.251 2.07849 50.1358 2.43617C50.0206 2.79625 49.963 3.37478 49.963 4.17417V19.8258C49.963 20.6275 50.0206 21.2061 50.1358 21.5638C50.251 21.9238 50.4719 22.1663 50.7984 22.2935C51.1248 22.4232 51.6338 22.5048 52.3251 22.5432V23.1769C51.1728 23.1145 49.5213 23.0809 47.3704 23.0809C45.1163 23.0809 43.4551 23.1145 42.3868 23.1769V22.5432C43.1406 22.5048 43.6927 22.4232 44.0384 22.2935C44.3889 22.1663 44.6265 21.9238 44.749 21.5638C44.8762 21.2061 44.941 20.6275 44.941 19.8258V3.31957L37.3361 23.2057H36.8272L28.3004 2.87787V18.0013C28.3004 19.2448 28.3628 20.157 28.4924 20.738C28.6197 21.3141 28.8909 21.7342 29.3086 21.9959C29.7311 22.2599 30.4153 22.4424 31.3635 22.5432V23.1769C30.5425 23.1145 29.4071 23.0809 27.9547 23.0809C26.7953 23.0809 25.8807 23.1145 25.2085 23.1769V22.5432C25.9047 22.4424 26.4184 22.2647 26.7448 22.0151C27.0713 21.7606 27.2922 21.3597 27.4074 20.8148C27.5226 20.2651 27.5802 19.4513 27.5802 18.3758V4.17417C27.5802 3.37478 27.5226 2.79625 27.4074 2.43617C27.2922 2.07849 27.0713 1.83603 26.7448 1.7064C26.4184 1.57917 25.9047 1.49515 25.2085 1.45674V0.822998C25.8807 0.887813 26.7953 0.91902 27.9547 0.91902C29.8944 0.91902 31.558 0.887813 32.9479 0.822998L39.3237 16.1961L45.1331 0.91902H47.3704C49.5213 0.91902 51.1728 0.887813 52.3251 0.822998V1.45674Z" fill="#145F79"/>
</g>
</g>
</g>
<g id="Group_7">
<g id="Group_8">
<g id="Group_9">
<path id="Vector_3" d="M74.7814 1.45674C74.0828 1.55997 73.5715 1.74001 73.245 1.99447C72.9185 2.24412 72.6977 2.64502 72.5825 3.19474C72.4672 3.73967 72.4096 4.54865 72.4096 5.6241V23.2441L71.651 23.2057L70.7964 23.2441L57.0941 5.87376V18.0013C57.0941 19.2448 57.1565 20.157 57.2862 20.738C57.4134 21.3141 57.6846 21.7342 58.1023 21.9959C58.5248 22.2599 59.209 22.4424 60.1572 22.5432V23.1769C59.3362 23.1145 58.2008 23.0809 56.7484 23.0809C55.589 23.0809 54.6744 23.1145 54.0022 23.1769V22.5432C54.6984 22.4424 55.2121 22.2647 55.5385 22.0151C55.865 21.7606 56.0859 21.3597 56.2011 20.8148C56.3163 20.2651 56.3739 19.4513 56.3739 18.3758V4.17417C56.3739 3.37478 56.3163 2.79625 56.2011 2.43617C56.0859 2.07849 55.865 1.83603 55.5385 1.7064C55.2121 1.57917 54.6984 1.49515 54.0022 1.45674V0.822998C54.6744 0.887813 55.589 0.91902 56.7484 0.91902C57.8047 0.91902 58.7097 0.887813 59.4659 0.822998L71.6799 15.8793V5.99858C71.6799 4.7575 71.615 3.84769 71.4878 3.27156C71.3654 2.69063 71.0941 2.26813 70.6716 2.00407C70.2491 1.74241 69.5626 1.55997 68.6168 1.45674V0.822998C69.4425 0.887813 70.5804 0.91902 72.0351 0.91902C73.2114 0.91902 74.1284 0.887813 74.7814 0.822998V1.45674Z" fill="#145F79"/>
</g>
</g>
</g>
<g id="Group_10">
<g id="Group_11">
<g id="Group_12">
<path id="Vector_4" d="M86.0505 1.45674C85.3328 1.49515 84.8142 1.57917 84.495 1.7064C84.1805 1.83603 83.9668 2.07849 83.8516 2.43617C83.7364 2.79625 83.6788 3.37478 83.6788 4.17417V19.8258C83.6788 20.6275 83.7364 21.2061 83.8516 21.5638C83.9668 21.9238 84.1805 22.1663 84.495 22.2935C84.8142 22.4232 85.3328 22.5048 86.0505 22.5432V23.1769C84.9103 23.1145 83.3187 23.0809 81.2782 23.0809C79.0241 23.0809 77.3629 23.1145 76.2947 23.1769V22.5432C76.986 22.5048 77.495 22.4232 77.8214 22.2935C78.1479 22.1663 78.3688 21.9238 78.484 21.5638C78.5992 21.2061 78.6568 20.6275 78.6568 19.8258V4.17417C78.6568 3.37478 78.5992 2.79625 78.484 2.43617C78.3688 2.07849 78.1479 1.83603 77.8214 1.7064C77.495 1.57917 76.986 1.49515 76.2947 1.45674V0.822998C77.3629 0.887813 79.0241 0.91902 81.2782 0.91902C83.3187 0.91902 84.9103 0.887813 86.0505 0.822998V1.45674Z" fill="#145F79"/>
</g>
</g>
</g>
<g id="Group_13">
<g id="Group_14">
<g id="Group_15">
<path id="Vector_5" d="M105.908 20.5267C106.181 21.2181 106.498 21.7246 106.858 22.0439C107.216 22.3583 107.562 22.524 107.895 22.5432V23.1769C106.633 23.1145 105.034 23.0809 103.094 23.0809C100.948 23.0809 99.3517 23.1145 98.3026 23.1769V22.5432C99.102 22.5048 99.6685 22.4063 100.002 22.2455C100.341 22.0871 100.511 21.8086 100.511 21.4101C100.511 21.0332 100.382 20.5267 100.127 19.893L98.2354 14.7174H91.3506L90.5344 16.8971C89.9439 18.4094 89.651 19.5761 89.651 20.4019C89.651 21.1773 89.8863 21.7174 90.3616 22.0247C90.8345 22.3319 91.5331 22.5048 92.4549 22.5432V23.1769C91.0266 23.1145 89.7231 23.0809 88.5468 23.0809C87.5722 23.0809 86.7728 23.1145 86.1462 23.1769V22.5432C87.1761 22.3583 88.0787 21.2541 88.8541 19.2304L96.0557 0.765381C96.2862 0.784585 96.6535 0.794187 97.16 0.794187C97.6641 0.794187 98.0242 0.784585 98.2354 0.765381L105.908 20.5267ZM98.0146 14.0836L94.8842 5.55688L91.6099 14.0836H98.0146Z" fill="#145F79"/>
</g>
</g>
</g>
</g>
</svg>
